<svg width="192" height="33" viewBox="0 0 192 33" fill="none" xmlns="http://www.w3.org/2000/svg">
<g clip-path="url(#clip0_4583_660)">
<path d="M51.8603 12.1272C53.6437 13.5352 54.5237 15.2365 54.5237 17.2194C54.5237 19.214 53.632 20.9036 51.8603 22.3115C50.0769 23.7195 47.9297 24.4235 45.4189 24.4235H39.4937V23.7078C40.0686 23.7078 40.3736 23.4731 40.4088 22.992V11.4584C40.3736 10.9774 40.0686 10.7427 39.4937 10.7427V10.027H45.4189C47.9415 10.0153 50.0886 10.7193 51.8603 12.1272ZM49.3377 21.6193C50.3702 20.4694 50.8865 19.0028 50.8865 17.2194C50.8865 15.4359 50.3702 13.981 49.3377 12.8195C48.2465 11.5758 46.7095 10.8952 44.7501 10.7545C44.2925 10.8366 44.0578 11.0712 44.0578 11.4467V22.9803C44.0578 23.3558 44.2925 23.5904 44.7501 23.6726C46.7212 23.5552 48.2465 22.863 49.3377 21.6193Z" fill="white"/>
<path d="M70.2811 23.7075V24.4232H63.7223V23.7075C64.7196 23.7075 65.2476 23.508 65.3063 23.1208L62.0445 18.6623H59.3459V22.9918C59.3811 23.4728 59.6861 23.7075 60.2611 23.7075V24.4232H54.7935V23.7075C55.3566 23.7075 55.65 23.4728 55.7086 22.9918V11.4699C55.6617 10.9888 55.3566 10.7542 54.7935 10.7542V10.0385H63.0066C64.5084 10.0385 65.7991 10.4608 66.8668 11.3056C67.9345 12.1504 68.4742 13.1594 68.4742 14.3562C68.4742 15.1306 68.2278 15.8581 67.7468 16.5151C67.2657 17.1722 66.6087 17.7001 65.7991 18.0756L68.967 23.1443C69.2251 23.508 69.671 23.7075 70.2811 23.7075ZM60.2728 17.9465C61.5282 17.9465 62.5959 17.5946 63.4877 16.8906C64.3794 16.1866 64.8252 15.3418 64.8252 14.3328C64.8252 13.3472 64.3794 12.5024 63.4877 11.7984C62.5959 11.0944 61.5282 10.7424 60.2728 10.7424C59.6979 10.7424 59.4046 10.9771 59.3576 11.4582V17.9348H60.2728V17.9465Z" fill="white"/>
<path d="M75.8661 16.034H80.2074C80.5359 15.858 80.7002 15.506 80.7002 14.9663H81.6036V16.5385V18.5683H80.7002C80.7002 18.2046 80.618 17.9113 80.442 17.7001C80.3834 17.6062 80.3012 17.5358 80.2074 17.4889H75.8661V22.9917H81.2868C81.6153 22.8157 81.7796 22.4637 81.7796 21.9123H82.6831V23.4845V24.4349H71.3254V23.7192C71.8886 23.7192 72.1819 23.4845 72.2289 23.0035V11.4581C72.1819 10.9771 71.8769 10.7424 71.3254 10.7424V10.0267H76.7813H82.6948V10.9771V12.5493H81.7796C81.7796 12.1856 81.6975 11.8922 81.5215 11.681C81.4628 11.5872 81.3807 11.5168 81.2868 11.4698H75.8661V16.034Z" fill="white"/>
<path d="M98.7456 23.7074V24.4231H92.3159V23.7074C93.278 23.7074 93.7943 23.5079 93.8529 23.0973L93.1724 20.4691L87.6579 20.4573L86.684 23.1207C86.731 23.5079 87.2003 23.6957 88.0803 23.6957V24.4114H83.5278V23.6957C83.9502 23.6839 84.3022 23.5901 84.5838 23.3906C84.7011 23.3085 84.8067 23.2146 84.8889 23.0973L89.3474 11.4346C89.4296 10.9653 89.0072 10.7306 88.0803 10.7306V10.0149H94.8385V10.7306C94.158 10.7306 93.8177 10.9183 93.8177 11.2938C93.8177 11.3407 93.8177 11.3877 93.8295 11.4346L97.4315 23.109C97.7014 23.5079 98.1355 23.7074 98.7456 23.7074ZM92.7383 19.1432L90.5794 12.6431L88.1741 19.1432H92.7383Z" fill="white"/>
<path d="M116.005 11.4581V22.9917C116.04 23.4728 116.345 23.7074 116.92 23.7074V24.4232H111.452V23.7074C112.016 23.7074 112.309 23.4728 112.368 22.9917V13.617L108.73 20.8211H106.912L103.274 13.617V22.9917C103.31 23.4728 103.615 23.7074 104.19 23.7074V24.4232H99.8484V23.7074C100.412 23.7074 100.705 23.4728 100.764 22.9917V11.4581C100.717 10.9771 100.412 10.7424 99.8484 10.7424V10.0267H104.166H105.081L108.719 17.2308L112.356 10.0267H116.908V10.7424C116.333 10.7424 116.04 10.9771 116.005 11.4581Z" fill="white"/>
<path d="M150.148 24.4349L146.042 11.3173C145.772 10.9419 145.338 10.7541 144.716 10.7424V10.0267H151.239V10.7424C150.254 10.7424 149.738 10.9419 149.679 11.3525L152.882 21.924L156.953 11.329C156.906 10.9419 156.437 10.7541 155.534 10.7541V10.0384H160.157V10.7541C159.734 10.7659 159.37 10.8597 159.089 11.0592C158.972 11.1413 158.866 11.2352 158.784 11.3525L153.785 24.4349H150.148Z" fill="white"/>
<path d="M165.519 15.9871H170.001C170.329 15.8111 170.493 15.4591 170.493 14.9194H171.409V16.4916V18.5214H170.493C170.493 18.1577 170.411 17.8644 170.235 17.6532C170.177 17.5593 170.094 17.4889 170.001 17.442H165.519V22.9917H170.974C171.303 22.8157 171.467 22.4637 171.467 21.9123H172.382V23.4845V24.4349H160.943V23.7192C161.506 23.7192 161.811 23.4845 161.858 23.0035V11.4581C161.811 10.9771 161.506 10.7424 160.943 10.7424V10.0267H166.434H172.382V10.9771V12.5493H171.467C171.467 12.1856 171.385 11.8922 171.209 11.681C171.15 11.5872 171.068 11.5168 170.974 11.4698H165.519V15.9871Z" fill="white"/>
<path d="M185.758 11.4581V22.9917C185.793 23.4728 186.098 23.7074 186.673 23.7074V24.4232H183.271L176.665 14.2271V22.98C176.7 23.461 177.005 23.6957 177.58 23.6957V24.4114H173.262V23.6957C173.826 23.6957 174.119 23.461 174.178 22.98V11.4581C174.131 10.9771 173.826 10.7424 173.262 10.7424V10.0267H177.58L183.282 18.3689V11.4581C183.236 10.9771 182.931 10.7424 182.367 10.7424V10.0267H186.685V10.7424C186.098 10.7424 185.793 10.9771 185.758 11.4581Z" fill="white"/>
<path d="M146.229 23.1325L142.58 11.4581C142.569 11.4112 142.557 11.3642 142.557 11.3173C142.557 10.9419 142.897 10.7541 143.589 10.7541V10.0384H136.737V10.7541C137.688 10.7541 138.11 10.9888 138.028 11.4581L136.233 16.1279C136.772 16.2687 137.3 16.4212 137.817 16.5855L139.272 12.6431L140.914 17.8409L141.231 18.8147C138.615 17.6297 135.224 16.6793 131.434 16.1631V11.4581C131.481 10.9771 131.786 10.7424 132.361 10.7424V10.0267H126.835V10.7424C127.398 10.7424 127.703 10.9888 127.761 11.4581V15.4474V15.7759V15.8111C125.978 15.7172 124.277 15.7407 122.693 15.8697V15.7759V15.4474V11.4581C122.74 10.9771 123.045 10.7424 123.62 10.7424V10.0267H118.093V10.7424C118.657 10.7424 118.962 10.9888 119.02 11.4581V16.4095C118.61 16.5033 118.223 16.5972 117.847 16.7028C117.624 16.7615 117.483 16.9375 117.53 17.1017C117.577 17.266 117.788 17.3364 118.011 17.2777C118.34 17.1956 118.68 17.1252 119.032 17.0548V23.0035C118.985 23.4845 118.68 23.7192 118.105 23.7192V24.4349H123.631V23.7192C123.068 23.7192 122.763 23.4845 122.705 23.0035V17.9113V17.2425V16.6441C124.289 16.5737 125.99 16.6207 127.773 16.7967V17.2425V17.9113V23.0035C127.726 23.4845 127.421 23.7192 126.846 23.7192V24.4349H132.138H132.373H136.749V23.7192C135.857 23.7192 135.376 23.5314 135.329 23.1442L136.162 20.915L136.233 20.7272L136.937 18.8851C139.049 19.683 140.832 20.6451 142.146 21.6776L142.604 23.1208C142.545 23.5197 142.017 23.7309 141.043 23.7309V24.4466H147.567V23.7309C146.933 23.7074 146.499 23.508 146.229 23.1325ZM133.499 23.1208C133.417 23.2381 133.311 23.332 133.194 23.4141C132.924 23.5901 132.596 23.684 132.22 23.7074C131.751 23.6722 131.481 23.4376 131.434 22.9917V17.3246C132.818 17.5945 134.133 17.9348 135.365 18.322L133.499 23.1208Z" fill="white"/>
<path d="M10.032 6.81182V9.01763C10.3135 8.99417 10.5834 8.98243 10.8415 8.95897C11.0527 8.10245 11.5455 7.50407 12.1204 7.50407C12.6484 7.50407 13.106 8.02032 13.3524 8.78297C13.7748 8.74777 14.1033 8.72431 14.3028 8.70084C14.4319 8.68911 14.5609 8.67737 14.69 8.66564C14.7134 8.66564 14.7252 8.66564 14.7486 8.66564C14.8425 7.60966 15.5934 6.75315 16.6025 6.50676C16.6729 6.26036 17.1891 3.1511 17.1891 3.1511C17.1891 3.1511 17.6936 6.26036 17.764 6.50676C18.7731 6.75315 19.5357 7.6214 19.6179 8.68911C19.8408 8.70084 20.3805 8.73604 21.108 8.7947C21.3426 8.03205 21.8002 7.5158 22.3399 7.5158C22.9031 7.5158 23.3959 8.11419 23.6071 8.95897C23.8418 8.9707 24.0764 8.99417 24.3228 9.0059V7.93819C24.2994 6.65929 24.4988 6.35423 23.1261 5.93183C21.7533 5.50944 19.6883 5.21612 19.6883 5.21612C19.6883 5.21612 20.5448 5.18092 22.3517 5.42731C23.6658 5.61504 24.8626 5.9553 25.0855 6.28383C25.1676 6.40116 25.109 6.49502 25.0034 6.56542C25.4844 6.34249 25.7543 6.08436 25.7543 5.8145C25.7543 5.43905 25.2145 5.08705 24.2759 4.79373L24.1116 4.74679C24.0882 4.73506 24.0647 4.73506 24.0412 4.72333L19.6179 3.39749C19.6531 3.35056 19.6648 3.29189 19.6648 3.24496C19.6648 3.05723 19.4653 2.89297 19.1134 2.75217H19.1016C19.0899 2.75217 19.0899 2.74044 19.0782 2.74044L17.7758 2.25938C18.0104 2.08339 18.1512 1.80179 18.1512 1.49673C18.1512 0.957012 17.7171 0.522888 17.1774 0.522888C16.6377 0.522888 16.2036 0.957012 16.2036 1.49673C16.2036 1.81353 16.3561 2.09512 16.5907 2.27112L15.3705 2.69351C14.9481 2.8343 14.69 3.02203 14.69 3.23323C14.69 3.29189 14.7134 3.35056 14.7486 3.40922L10.3839 4.68813C10.2783 4.72333 10.1728 4.74679 10.0672 4.78199C9.15197 5.07532 8.61225 5.42731 8.61225 5.80277C8.60052 6.1665 9.12851 6.51849 10.032 6.81182Z" fill="white"/>
<path d="M24.3109 13.8986V11.1648C24.1115 11.1765 23.912 11.1883 23.7243 11.2117V13.6757C23.0086 13.4527 22.0582 13.265 20.9318 13.136V11.4112C20.4038 11.4464 19.958 11.4816 19.6177 11.5168V13.0186C19.078 12.9834 18.5031 12.96 17.9164 12.9482C17.6465 14.2623 17.1772 16.8436 17.1772 16.8436C17.1772 16.8436 16.6962 14.0981 16.3911 12.9482C15.8162 12.96 15.2647 12.9834 14.7367 13.0186V11.5403C14.6898 11.5403 14.6311 11.5403 14.5842 11.5285C14.2322 11.5051 13.8802 11.4699 13.5165 11.4464V13.136C12.4019 13.265 11.4515 13.441 10.724 13.6522V11.2469C10.4894 11.2352 10.2664 11.2117 10.0318 11.2V13.8986C9.52725 14.1215 9.24566 14.3679 9.24566 14.6378C9.24566 15.201 10.5363 15.7055 12.5309 16.0106L12.4253 17.266C12.0147 17.4772 11.7917 17.7118 11.7917 17.97C11.7917 18.2046 11.9795 18.4158 12.308 18.6153L12.1085 20.9267C11.8973 20.9032 11.6979 20.8798 11.4749 20.8798C10.3838 20.8798 9.37472 21.267 8.60034 21.9006C9.17526 21.5955 9.83231 21.4195 10.5246 21.4195C12.2024 21.4195 13.6456 22.452 14.2557 23.9069C14.1384 23.8834 14.021 23.8717 13.892 23.8717C13.3992 23.8717 12.9533 24.036 12.5896 24.3176C12.6483 24.2941 12.7069 24.2706 12.7773 24.2589H12.789C12.8477 24.2472 12.9064 24.2354 12.965 24.2237C12.9885 24.2237 13.012 24.212 13.0354 24.212C13.0824 24.2002 13.1293 24.2002 13.1645 24.1885C13.2349 24.1768 13.3053 24.1768 13.3757 24.1768C13.7512 24.1768 14.1149 24.2706 14.4317 24.4349C14.5255 24.4818 14.6077 24.5405 14.6898 24.5874L14.7015 24.5992C14.7719 24.6578 14.8423 24.7048 14.9127 24.7752C14.9245 24.7869 14.9362 24.7869 14.9362 24.7986C15.077 24.9277 15.1943 25.0802 15.2999 25.2327C15.3117 25.2445 15.3234 25.2679 15.3351 25.2797C15.3821 25.3501 15.4173 25.4205 15.4525 25.4909C15.4642 25.5026 15.4642 25.5143 15.4759 25.5261C15.5111 25.6082 15.5463 25.7021 15.5698 25.7959C15.5698 25.8194 15.5815 25.8311 15.5815 25.8546C15.605 25.925 15.6167 26.0071 15.6285 26.0775C15.6285 26.101 15.6402 26.1245 15.6402 26.1597C15.6519 26.2535 15.6637 26.3474 15.6637 26.453C15.6637 26.4882 15.6637 26.5117 15.6519 26.5469C14.4903 25.5495 13.0354 24.9629 11.4515 24.9746C10.4894 24.9864 9.57419 25.2093 8.74114 25.6199C9.24566 25.5261 9.76192 25.4791 10.3016 25.4674C13.493 25.4439 16.2738 27.0866 17.7287 29.5388C17.3297 28.4945 16.7196 27.5676 15.957 26.8284C17.0951 24.5522 19.3948 23.0387 21.1665 21.1731C21.7179 20.5865 22.727 19.6243 21.5067 19.0846C19.911 18.3806 16.9895 18.3454 16.6375 18.322C15.8044 18.2633 15.1474 18.2868 15.1474 18.2868C15.1474 18.2868 15.4642 18.2281 15.5933 18.2164C18.7025 17.9348 20.9318 18.1225 22.1872 18.5449C22.4336 18.3689 22.5744 18.1812 22.5744 17.9934C22.5744 17.7353 22.3398 17.5007 21.9408 17.2895L21.847 16.1983C21.7648 15.7994 21.5771 15.5647 20.9435 15.3652C19.8758 15.0367 18.6673 14.8959 18.6673 14.8959C18.6673 14.8959 19.4652 14.8724 20.4859 14.9663C21.5067 15.0719 22.3163 15.2479 22.4923 15.553C22.5744 15.7055 22.4688 15.8346 22.328 15.9402C24.0411 15.6351 25.1205 15.1658 25.1205 14.6495C25.1088 14.3679 24.8154 14.1215 24.3109 13.8986Z" fill="white"/>
<path d="M19.0193 9.3462C18.7612 9.32273 18.4913 9.29927 18.2449 9.19367C17.7287 8.97074 17.2711 6.35426 17.189 5.87321V5.79108C17.189 5.79108 17.189 5.80281 17.1772 5.82628C17.1772 5.80281 17.1655 5.79108 17.1655 5.79108V5.87321C17.0834 6.35426 16.6258 8.97074 16.1095 9.19367C15.8631 9.29927 15.605 9.32273 15.3351 9.3462C14.7954 9.39313 0 10.0736 0 10.0736C0 10.0736 12.8125 10.5899 15.2765 10.8128C15.5463 10.8363 15.8162 10.8598 16.0626 10.9654C16.5554 11.1883 17.0834 13.84 17.1772 14.2858V14.3562C17.1772 14.3562 17.1772 14.3445 17.189 14.321C17.189 14.3445 17.2007 14.3562 17.2007 14.3562V14.2858C17.2828 13.84 17.8225 11.1883 18.3153 10.9654C18.5617 10.8598 18.8316 10.8363 19.1014 10.8128C21.5771 10.6016 34.3779 10.0736 34.3779 10.0736C34.3779 10.0736 19.5708 9.39313 19.0193 9.3462Z" fill="white"/>
<path d="M22.9733 29.0812L22.2928 21.396C21.3072 22.6515 19.9697 24.1416 19.207 25.6551C18.7142 26.6407 18.8668 27.7905 19.383 28.7409C22.0699 28.9991 24.3696 30.5713 25.6367 32.8006C25.2261 31.2518 24.264 29.9377 22.9733 29.0812Z" fill="white"/>
<path d="M189.067 10.2967H188.492V10.0855H189.9V10.2967H189.325V11.9863H189.079V10.2967H189.067Z" fill="white"/>
<path d="M191.707 11.153C191.695 10.8831 191.671 10.5663 191.683 10.3317H191.671C191.601 10.5546 191.531 10.7893 191.437 11.0474L191.096 11.9626H190.909L190.604 11.0591C190.51 10.7893 190.439 10.5429 190.381 10.3199C190.381 10.5546 190.357 10.8714 190.346 11.1647L190.299 11.9743H190.064L190.193 10.0735H190.51L190.838 10.9887C190.92 11.2234 190.979 11.4346 191.026 11.6223H191.038C191.085 11.4346 191.155 11.2234 191.237 10.9887L191.578 10.0735H191.894L192.012 11.9743H191.777L191.707 11.153Z" fill="white"/>
</g>
<defs>
<clipPath id="clip0_4583_660">
<rect width="192" height="32.3011" fill="white" transform="translate(0 0.49939)"/>
</clipPath>
</defs>
</svg>
